<svg xmlns="http://www.w3.org/2000/svg" xmlns:xlink="http://www.w3.org/1999/xlink" width="1080" zoomAndPan="magnify" viewBox="0 0 810 809.999993" height="1080" preserveAspectRatio="xMidYMid meet" version="1.2"><metadata><ContainsAiGeneratedContent>Yes</ContainsAiGeneratedContent></metadata><g id="99f653c5ab">><rect x="0" width="810" y="0" height="809.999993" style="fill:none;stroke:none;"/>
<rect x="0" width="810" y="0" height="809.999993" style="fill:none;stroke:none;"/>
<path style=" stroke:none;fill-rule:nonzero;fill:#3c5056;fill-opacity:1;" d="M 621.480469 74.355469 L 621.480469 729.316406 C 621.480469 753.441406 601.898438 772.820312 577.964844 772.820312 L 43.527344 772.820312 C 19.394531 772.820312 -0.1875 753.441406 -0.1875 729.316406 L -0.1875 74.355469 C -0.1875 50.425781 19.394531 30.851562 43.527344 30.851562 L 577.964844 30.851562 C 601.898438 30.851562 621.480469 50.425781 621.480469 74.355469 Z M 621.480469 74.355469 "/><path style=" stroke:none;fill-rule:nonzero;fill:#495e66;fill-opacity:1;" d="M 659.457031 112.324219 L 659.457031 767.285156 C 659.457031 791.214844 639.875 810.789062 615.941406 810.789062 L 81.503906 810.789062 C 57.371094 810.789062 37.789062 791.214844 37.789062 767.285156 L 37.789062 112.324219 C 37.789062 88.394531 57.371094 68.820312 81.503906 68.820312 L 615.941406 68.820312 C 639.875 68.820312 659.457031 88.394531 659.457031 112.324219 Z M 659.457031 112.324219 "/><path style=" stroke:none;fill-rule:nonzero;fill:#ffffff;fill-opacity:1;" d="M 614.359375 140.011719 L 614.359375 765.503906 L 109.195312 765.503906 C 94.753906 765.503906 82.886719 753.835938 82.886719 739.402344 L 82.886719 140.011719 C 82.886719 125.773438 94.753906 113.90625 109.195312 113.90625 L 588.050781 113.90625 C 602.492188 113.90625 614.359375 125.773438 614.359375 140.011719 Z M 614.359375 140.011719 "/><path style=" stroke:none;fill-rule:nonzero;fill:#fbe063;fill-opacity:1;" d="M 500.035156 91.957031 L 500.035156 114.5 C 500.035156 125.574219 490.9375 134.671875 479.660156 134.671875 L 217.585938 134.671875 C 206.308594 134.671875 197.210938 125.574219 197.210938 114.5 L 197.210938 91.957031 C 197.210938 72.378906 213.035156 56.359375 232.617188 56.359375 L 298.679688 56.359375 L 298.679688 49.242188 C 298.679688 21.554688 320.832031 -0.789062 348.722656 -0.789062 C 362.371094 -0.789062 375.027344 4.945312 384.128906 13.84375 C 393.027344 22.742188 398.765625 35.398438 398.765625 49.242188 L 398.765625 56.359375 L 464.628906 56.359375 C 484.011719 56.359375 500.035156 72.378906 500.035156 91.957031 Z M 500.035156 91.957031 "/><path style=" stroke:none;fill-rule:nonzero;fill:#ffffff;fill-opacity:1;" d="M 348.722656 33.222656 C 358.019531 33.222656 365.535156 40.738281 365.535156 50.03125 C 365.535156 59.328125 357.820312 66.839844 348.722656 66.839844 C 339.226562 66.839844 331.515625 59.328125 331.515625 50.03125 C 331.710938 40.738281 339.226562 33.222656 348.722656 33.222656 Z M 348.722656 33.222656 "/><path style=" stroke:none;fill-rule:nonzero;fill:#8f90fb;fill-opacity:1;" d="M 806.417969 333.019531 L 636.90625 643.886719 L 529.703125 585.351562 L 699.210938 274.679688 C 707.914062 258.859375 727.496094 253.125 743.121094 261.628906 L 793.558594 289.117188 C 809.1875 297.621094 814.921875 317.394531 806.417969 333.019531 Z M 806.417969 333.019531 "/><path style=" stroke:none;fill-rule:nonzero;fill:#fbe063;fill-opacity:1;" d="M 636.90625 643.886719 L 552.449219 694.90625 C 543.746094 700.046875 532.867188 694.117188 532.472656 684.03125 L 529.703125 585.351562 Z M 636.90625 643.886719 "/><path style=" stroke:none;fill-rule:nonzero;fill:#495e66;fill-opacity:1;" d="M 531.484375 651.796875 L 532.472656 684.03125 C 532.867188 694.117188 543.746094 700.046875 552.25 694.90625 L 579.941406 678.296875 Z M 531.484375 651.796875 "/><path style=" stroke:none;fill-rule:nonzero;fill:#5b52c5;fill-opacity:1;" d="M 643.433594 510.601562 C 642.445312 510.601562 641.457031 510.203125 640.46875 509.808594 C 637.304688 508.226562 636.3125 504.273438 637.894531 501.109375 L 710.882812 367.230469 C 712.664062 364.261719 716.421875 363.078125 719.585938 364.660156 C 722.550781 366.4375 723.738281 370.394531 722.15625 373.359375 L 648.972656 507.238281 C 647.984375 509.414062 645.808594 510.601562 643.433594 510.601562 Z M 643.433594 510.601562 "/><path style=" stroke:none;fill-rule:nonzero;fill:#54e28e;fill-opacity:1;" d="M 248.441406 430.113281 L 248.441406 492.210938 C 248.441406 503.285156 239.34375 512.378906 228.265625 512.378906 L 166.160156 512.378906 C 155.28125 512.378906 146.179688 503.285156 146.179688 492.210938 L 146.179688 430.113281 C 146.179688 419.039062 155.28125 410.140625 166.160156 410.140625 L 228.265625 410.140625 C 239.34375 410.140625 248.441406 419.039062 248.441406 430.113281 Z M 248.441406 430.113281 "/><path style=" stroke:none;fill-rule:nonzero;fill:#e2e2e0;fill-opacity:1;" d="M 551.066406 421.019531 L 403.511719 421.019531 C 399.949219 421.019531 397.179688 418.25 397.179688 414.691406 C 397.179688 411.128906 399.949219 408.363281 403.511719 408.363281 L 551.066406 408.363281 C 554.625 408.363281 557.394531 411.128906 557.394531 414.691406 C 557.394531 418.25 554.625 421.019531 551.066406 421.019531 Z M 551.066406 421.019531 "/><path style=" stroke:none;fill-rule:nonzero;fill:#e2e2e0;fill-opacity:1;" d="M 370.675781 421.019531 L 325.382812 421.019531 C 321.820312 421.019531 319.054688 418.25 319.054688 414.691406 C 319.054688 411.128906 321.820312 408.363281 325.382812 408.363281 L 370.675781 408.363281 C 374.238281 408.363281 377.007812 411.128906 377.007812 414.691406 C 377.007812 418.25 374.238281 421.019531 370.675781 421.019531 Z M 370.675781 421.019531 "/><path style=" stroke:none;fill-rule:nonzero;fill:#e2e2e0;fill-opacity:1;" d="M 551.066406 467.488281 L 514.671875 467.488281 C 511.109375 467.488281 508.339844 464.722656 508.339844 461.160156 C 508.339844 457.601562 511.109375 454.832031 514.671875 454.832031 L 551.066406 454.832031 C 554.625 454.832031 557.394531 457.601562 557.394531 461.160156 C 557.394531 464.722656 554.625 467.488281 551.066406 467.488281 Z M 551.066406 467.488281 "/><path style=" stroke:none;fill-rule:nonzero;fill:#e2e2e0;fill-opacity:1;" d="M 481.441406 467.488281 L 325.382812 467.488281 C 321.820312 467.488281 319.054688 464.722656 319.054688 461.160156 C 319.054688 457.601562 321.820312 454.832031 325.382812 454.832031 L 481.441406 454.832031 C 485 454.832031 487.769531 457.601562 487.769531 461.160156 C 487.769531 464.722656 485 467.488281 481.441406 467.488281 Z M 481.441406 467.488281 "/><path style=" stroke:none;fill-rule:nonzero;fill:#e2e2e0;fill-opacity:1;" d="M 467.792969 513.960938 L 325.382812 513.960938 C 321.820312 513.960938 319.054688 511.195312 319.054688 507.632812 C 319.054688 504.074219 321.820312 501.304688 325.382812 501.304688 L 467.792969 501.304688 C 471.355469 501.304688 474.125 504.074219 474.125 507.632812 C 474.125 511.195312 471.355469 513.960938 467.792969 513.960938 Z M 467.792969 513.960938 "/><path style=" stroke:none;fill-rule:nonzero;fill:#54e28e;fill-opacity:1;" d="M 248.441406 579.222656 L 248.441406 641.316406 C 248.441406 652.390625 239.34375 661.488281 228.265625 661.488281 L 166.160156 661.488281 C 155.28125 661.488281 146.179688 652.390625 146.179688 641.316406 L 146.179688 579.222656 C 146.179688 568.148438 155.28125 559.246094 166.160156 559.246094 L 228.265625 559.246094 C 239.34375 559.246094 248.441406 568.148438 248.441406 579.222656 Z M 248.441406 579.222656 "/><path style=" stroke:none;fill-rule:nonzero;fill:#e2e2e0;fill-opacity:1;" d="M 477.289062 570.320312 L 403.511719 570.320312 C 399.949219 570.320312 397.179688 567.554688 397.179688 563.992188 C 397.179688 560.433594 399.949219 557.664062 403.511719 557.664062 L 477.289062 557.664062 C 480.847656 557.664062 483.617188 560.433594 483.617188 563.992188 C 483.617188 567.554688 480.648438 570.320312 477.289062 570.320312 Z M 477.289062 570.320312 "/><path style=" stroke:none;fill-rule:nonzero;fill:#e2e2e0;fill-opacity:1;" d="M 370.675781 570.320312 L 325.382812 570.320312 C 321.820312 570.320312 319.054688 567.554688 319.054688 563.992188 C 319.054688 560.433594 321.820312 557.664062 325.382812 557.664062 L 370.675781 557.664062 C 374.238281 557.664062 377.007812 560.433594 377.007812 563.992188 C 377.007812 567.554688 374.238281 570.320312 370.675781 570.320312 Z M 370.675781 570.320312 "/><path style=" stroke:none;fill-rule:nonzero;fill:#e2e2e0;fill-opacity:1;" d="M 449.792969 616.597656 L 325.382812 616.597656 C 321.820312 616.597656 319.054688 613.828125 319.054688 610.269531 C 319.054688 606.707031 321.820312 603.941406 325.382812 603.941406 L 449.792969 603.941406 C 453.355469 603.941406 456.125 606.707031 456.125 610.269531 C 456.125 613.828125 453.355469 616.597656 449.792969 616.597656 Z M 449.792969 616.597656 "/><path style=" stroke:none;fill-rule:nonzero;fill:#e2e2e0;fill-opacity:1;" d="M 413.402344 663.070312 L 325.382812 663.070312 C 321.820312 663.070312 319.054688 660.300781 319.054688 656.742188 C 319.054688 653.179688 321.820312 650.414062 325.382812 650.414062 L 413.402344 650.414062 C 416.960938 650.414062 419.730469 653.179688 419.730469 656.742188 C 419.730469 660.300781 416.960938 663.070312 413.402344 663.070312 Z M 413.402344 663.070312 "/><path style=" stroke:none;fill-rule:nonzero;fill:#ffffff;fill-opacity:1;" d="M 189.5 480.34375 C 187.914062 480.34375 186.136719 479.75 185.148438 478.367188 L 174.664062 468.082031 C 172.09375 465.511719 172.09375 461.558594 174.664062 458.988281 C 177.234375 456.414062 181.191406 456.414062 183.761719 458.988281 L 189.695312 464.917969 L 210.660156 443.957031 C 213.234375 441.386719 217.1875 441.386719 219.5625 443.957031 C 222.132812 446.527344 222.132812 450.484375 219.5625 453.054688 L 194.046875 478.367188 C 192.859375 479.554688 191.082031 480.34375 189.5 480.34375 Z M 189.5 480.34375 "/><path style=" stroke:none;fill-rule:nonzero;fill:#5b52c5;fill-opacity:1;" d="M 237.957031 220.890625 L 237.957031 234.933594 L 198.792969 234.933594 L 198.792969 337.367188 L 182.773438 337.367188 L 182.773438 234.933594 L 143.609375 234.933594 L 143.609375 220.890625 Z M 237.957031 220.890625 "/><path style=" stroke:none;fill-rule:nonzero;fill:#5b52c5;fill-opacity:1;" d="M 253.980469 220.890625 L 338.832031 220.890625 L 338.832031 235.328125 L 269.40625 235.328125 L 269.40625 270.527344 L 333.691406 270.527344 L 333.691406 283.976562 L 269.40625 283.976562 L 269.40625 323.527344 L 340.21875 323.527344 L 340.21875 337.367188 L 253.980469 337.367188 Z M 253.980469 220.890625 "/><path style=" stroke:none;fill-rule:nonzero;fill:#5b52c5;fill-opacity:1;" d="M 371.074219 299.796875 C 371.46875 306.320312 372.851562 311.859375 375.820312 315.8125 C 380.960938 323.527344 390.0625 327.480469 403.511719 327.480469 C 409.445312 327.480469 414.785156 326.492188 419.730469 324.910156 C 429.027344 321.546875 433.773438 315.8125 433.773438 307.308594 C 433.773438 300.980469 431.597656 296.433594 427.839844 293.664062 C 423.6875 291.09375 417.554688 288.722656 408.851562 286.941406 L 393.027344 283.382812 C 382.742188 281.007812 375.425781 278.4375 371.074219 275.667969 C 363.753906 270.921875 359.996094 263.410156 359.996094 253.917969 C 359.996094 243.433594 363.753906 234.933594 370.875 228.011719 C 378.191406 221.285156 388.476562 217.925781 401.730469 217.925781 C 413.796875 217.925781 424.277344 220.890625 432.785156 226.824219 C 441.289062 232.757812 445.640625 242.050781 445.640625 255.101562 L 430.804688 255.101562 C 430.015625 248.773438 428.234375 244.027344 425.664062 240.667969 C 420.917969 234.734375 412.808594 231.570312 401.335938 231.570312 C 392.039062 231.570312 385.3125 233.546875 381.359375 237.503906 C 377.203125 241.261719 375.226562 246.007812 375.226562 251.148438 C 375.226562 256.882812 377.601562 261.035156 382.347656 263.605469 C 385.511719 265.1875 392.433594 267.363281 403.511719 269.933594 L 419.730469 273.691406 C 427.640625 275.472656 433.773438 277.84375 437.925781 281.007812 C 445.441406 286.347656 449.199219 294.257812 449.199219 304.542969 C 449.199219 317.59375 444.453125 326.691406 435.15625 332.425781 C 425.664062 337.960938 414.785156 340.730469 402.523438 340.730469 C 388.082031 340.730469 376.609375 336.972656 368.304688 329.65625 C 360.195312 322.140625 356.238281 312.253906 356.4375 299.796875 Z M 371.074219 299.796875 "/><path style=" stroke:none;fill-rule:nonzero;fill:#5b52c5;fill-opacity:1;" d="M 553.636719 220.890625 L 553.636719 234.933594 L 514.472656 234.933594 L 514.472656 337.367188 L 498.453125 337.367188 L 498.453125 234.933594 L 459.289062 234.933594 L 459.289062 220.890625 Z M 553.636719 220.890625 "/><path style=" stroke:none;fill-rule:nonzero;fill:#efefed;fill-opacity:1;" d="M 663.015625 341.125 L 678.445312 313.042969 L 785.449219 371.578125 L 770.21875 399.460938 Z M 663.015625 341.125 "/><path style=" stroke:none;fill-rule:nonzero;fill:#54e28e;fill-opacity:1;" d="M 785.449219 371.578125 L 806.417969 333.019531 C 814.921875 317.394531 809.1875 297.621094 793.558594 289.117188 L 743.121094 261.828125 C 727.300781 253.125 707.71875 259.058594 699.210938 274.679688 L 678.046875 313.242188 Z M 785.449219 371.578125 "/></g></svg>